# xmcd
#
# Track frame offsets:
#	150
#	14043
#	26132
#	39595
#	51792
#	64617
#	76917
#	89217
#	98360
#	110623
#	123663
#	134163
#
# Disc length: 1945 seconds
#
# Revision: 0
# Processed by: cddbd v1.4PL0 Copyright (c) Steve Scherf et al.
# Submitted via: dBpowerAMP V4.0
#
DISCID=a907970c
DTITLE=Various Artist - Moments and Memories
DYEAR=2003
DGENRE=Blues
TTITLE0=You Can Tell Me Goodbye
TTITLE1=Tell It Like It Is
TTITLE2=Stand By Me
TTITLE3=My Girl
TTITLE4=When A Man Loves A Woman
TTITLE5=I'm A Believer
TTITLE6=My Prayer
TTITLE7=Surfin' Safari
TTITLE8=Your Precious Love
TTITLE9=Please Don't Stop Loving Me
TTITLE10=Runaway
TTITLE11=Come Go With Me
EXTD=CEG
EXTT0=
EXTT1=
EXTT2=
EXTT3=
EXTT4=
EXTT5=
EXTT6=
EXTT7=
EXTT8=
EXTT9=
EXTT10=
EXTT11=
PLAYORDER=
